<svg xmlns="http://www.w3.org/2000/svg" viewBox="0 0 1440 320"><path fill="#0099ff" fill-opacity="1" d="M0,0L24,42.7C48,85,96,171,144,186.7C192,203,240,149,288,144C336,139,384,181,432,208C480,235,528,245,576,250.7C624,256,672,256,720,224C768,192,816,128,864,101.3C912,75,960,85,1008,90.7C1056,96,1104,96,1152,117.3C1200,139,1248,181,1296,170.7C1344,160,1392,96,1416,64L1440,32L1440,320L1416,320C1392,320,1344,320,1296,320C1248,320,1200,320,1152,320C1104,320,1056,320,1008,320C960,320,912,320,864,320C816,320,768,320,720,320C672,320,624,320,576,320C528,320,480,320,432,320C384,320,336,320,288,320C240,320,192,320,144,320C96,320,48,320,24,320L0,320Z"></path></svg>